<svg xmlns="http://www.w3.org/2000/svg" viewBox="0 0 303 64" role="img" aria-label="AuditPulse">
  <title>AuditPulse</title>
  <!-- Horizontal lockup: mark + wordmark. The wordmark is outlined Syne
       ExtraBold, so it renders identically everywhere with no webfont. Light wordmark, for dark backgrounds. -->
  <defs><linearGradient id="ap-lockup" x1="0" y1="0" x2="0" y2="1"><stop offset="0" stop-color="#5cf0bb"/><stop offset="1" stop-color="#22c98c"/></linearGradient></defs>
  <path fill="url(#ap-lockup)" d="M32 3.5 56.5 12.6V32c0 14.6-11.2 25.2-24.5 29.2C18.7 57.2 7.5 46.6 7.5 32V12.6Z"/>
  <path fill="none" stroke="#04140d" stroke-width="7.5" stroke-linecap="round" stroke-linejoin="round" d="M18 32.5h5l4.5-11L35 43l3.5-10.5h6.5"/>
  <g fill="#e9edf5" transform="translate(80 41.711) scale(0.026000 -0.026000)"><path d="M234 97V247H918V97ZM10 0 439 640H717L1150 0H875L504 573H653L285 0Z" transform="translate(-10.0 0)"/><path d="M953 0H713V490H953ZM723 253 725 205Q722 184 705.5 156.0Q689 128 660.0 98.0Q631 68 589.0 42.5Q547 17 493.0 1.0Q439 -15 373 -15Q307 -15 248.0 -1.5Q189 12 143.0 43.0Q97 74 71.0 126.5Q45 179 45 258V490H285V283Q285 228 303.5 198.0Q322 168 362.0 156.5Q402 145 465 145Q524 145 574.5 162.5Q625 180 663.5 205.0Q702 230 723 253Z" transform="translate(1150.0 0)"/><path d="M408 -14Q300 -14 216.0 16.5Q132 47 83.5 105.0Q35 163 35 245Q35 331 83.5 389.0Q132 447 216.0 476.0Q300 505 408 505Q498 505 570.0 486.5Q642 468 693.0 433.5Q744 399 771.0 351.0Q798 303 798 245Q798 187 771.0 139.5Q744 92 693.0 57.5Q642 23 570.0 4.5Q498 -14 408 -14ZM498 138Q574 138 637.5 147.5Q701 157 739.5 180.0Q778 203 778 245Q778 288 739.5 311.0Q701 334 637.5 343.0Q574 352 498 352Q396 352 340.0 325.5Q284 299 284 245Q284 210 309.0 186.0Q334 162 382.0 150.0Q430 138 498 138ZM778 690H1018V0H792Q788 23 783.0 74.5Q778 126 778 190Z" transform="translate(2148.0 0)"/><path d="M309 747V597H55V747ZM62 490H302V0H62Z" transform="translate(3246.0 0)"/><path d="M20 490H608V340H20ZM194 640H434V0H194Z" transform="translate(3610.0 0)"/><path d="M302 165V340H801Q831 340 851.5 349.5Q872 359 872 390Q872 422 851.5 431.0Q831 440 801 440H318V0H68V640H762Q837 640 902.5 629.5Q968 619 1017.0 592.0Q1066 565 1094.0 516.0Q1122 467 1122 390Q1122 313 1094.0 268.0Q1066 223 1017.0 201.0Q968 179 902.5 172.0Q837 165 762 165Z" transform="translate(4238.0 0)"/><path d="M953 0H713V490H953ZM723 253 725 205Q722 184 705.5 156.0Q689 128 660.0 98.0Q631 68 589.0 42.5Q547 17 493.0 1.0Q439 -15 373 -15Q307 -15 248.0 -1.5Q189 12 143.0 43.0Q97 74 71.0 126.5Q45 179 45 258V490H285V283Q285 228 303.5 198.0Q322 168 362.0 156.5Q402 145 465 145Q524 145 574.5 162.5Q625 180 663.5 205.0Q702 230 723 253Z" transform="translate(5415.0 0)"/><path d="M60 690H300V0H60Z" transform="translate(6413.0 0)"/><path d="M40 176H261Q275 150 314.5 140.0Q354 130 428 130Q485 130 512.5 136.0Q540 142 548.5 152.0Q557 162 557 173Q557 190 538.5 196.5Q520 203 476.0 204.5Q432 206 355 206Q282 206 224.5 212.5Q167 219 127.0 233.5Q87 248 66.0 274.0Q45 300 45 339Q45 387 76.0 419.5Q107 452 160.0 470.5Q213 489 282.5 497.0Q352 505 428 505Q554 505 634.0 479.5Q714 454 752.0 411.0Q790 368 789 314H574Q563 340 532.5 350.0Q502 360 428 360Q358 360 326.5 349.5Q295 339 295 316Q295 301 310.5 293.5Q326 286 369.5 283.0Q413 280 497 280Q555 280 610.5 276.0Q666 272 710.5 259.0Q755 246 781.0 219.0Q807 192 807 145Q807 88 760.5 52.5Q714 17 629.0 1.0Q544 -15 428 -15Q327 -15 257.5 -2.0Q188 11 144.0 32.5Q100 54 76.5 79.5Q53 105 45.5 130.5Q38 156 40 176Z" transform="translate(6773.0 0)"/><path d="M721 176H957Q948 118 899.5 75.0Q851 32 758.5 8.5Q666 -15 523 -15Q372 -15 262.5 9.0Q153 33 94.0 90.0Q35 147 35 244Q35 340 92.5 397.5Q150 455 259.0 480.0Q368 505 523 505Q675 505 772.0 478.0Q869 451 915.0 390.5Q961 330 959 227H279Q284 201 307.5 179.0Q331 157 380.5 143.5Q430 130 513 130Q599 130 654.5 142.0Q710 154 721 176ZM513 360Q407 360 351.5 337.0Q296 314 286 291H726Q719 317 670.0 338.5Q621 360 513 360Z" transform="translate(7615.0 0)"/></g>
</svg>
